HIERARCHY
ROOT Hips
{
    OFFSET 0.000000 0.000000 0.000000
    CHANNELS 6 Xposition Yposition Zposition Zrotation Xrotation Yrotation
    JOINT Spine
    {
        OFFSET -0.000000 8.505030 0.000000
        CHANNELS 3 Zrotation Xrotation Yrotation
        JOINT Spine1
        {
            OFFSET -0.000000 25.070629 0.000000
            CHANNELS 3 Zrotation Xrotation Yrotation
            JOINT Neck
            {
                OFFSET -0.000000 24.967667 2.269788
                CHANNELS 3 Zrotation Xrotation Yrotation
                JOINT Head
                {
                    OFFSET -0.000000 14.520781 -2.074397
                    CHANNELS 3 Zrotation Xrotation Yrotation
                    End Site
                    {
                        OFFSET -0.000000 25.929966 0.000000
                    }
                }
            }
            JOINT LeftShoulder
            {
                OFFSET 4.117346 22.983784 -0.389865
                CHANNELS 3 Zrotation Xrotation Yrotation
                JOINT LeftArm
                {
                    OFFSET 11.957758 0.000000 0.000000
                    CHANNELS 3 Zrotation Xrotation Yrotation
                    JOINT LeftForeArm
                    {
                        OFFSET 31.907600 0.000000 0.000000
                        CHANNELS 3 Zrotation Xrotation Yrotation
                        JOINT LeftHand
                        {
                            OFFSET 28.601147 0.000000 0.000000
                            CHANNELS 3 Zrotation Xrotation Yrotation
                            End Site
                            {
                                OFFSET 15.557981 0.000000 0.000000
                            }
                        }
                    }
                }
            }
            JOINT RightShoulder
            {
                OFFSET -4.061940 22.983784 -0.389865
                CHANNELS 3 Zrotation Xrotation Yrotation
                JOINT RightArm
                {
                    OFFSET -11.957758 0.000000 0.000000
                    CHANNELS 3 Zrotation Xrotation Yrotation
                    JOINT RightForeArm
                    {
                        OFFSET -31.907600 0.000000 0.000000
                        CHANNELS 3 Zrotation Xrotation Yrotation
                        JOINT RightHand
                        {
                            OFFSET -28.601147 0.000000 0.000000
                            CHANNELS 3 Zrotation Xrotation Yrotation
                            End Site
                            {
                                OFFSET -15.557981 0.000000 0.000000
                            }
                        }
                    }
                }
            }
        }
    }
    JOINT LeftUpLeg
    {
        OFFSET 10.371986 0.000000 0.000000
        CHANNELS 3 Zrotation Xrotation Yrotation
        JOINT LeftLeg
        {
            OFFSET -0.000000 -42.486427 0.000000
            CHANNELS 3 Zrotation Xrotation Yrotation
            JOINT LeftFoot
            {
                OFFSET -0.000000 -48.322342 0.000000
                CHANNELS 3 Zrotation Xrotation Yrotation
                JOINT LeftToeBase
                {
                    OFFSET -0.000000 -6.741791 15.557981
                    CHANNELS 3 Zrotation Xrotation Yrotation
                    End Site
                    {
                        OFFSET -0.000000 0.000000 4.148795
                    }
                }
            }
        }
    }
    JOINT RightUpLeg
    {
        OFFSET -10.371986 0.000000 0.000000
        CHANNELS 3 Zrotation Xrotation Yrotation
        JOINT RightLeg
        {
            OFFSET -0.000000 -42.486427 0.000000
            CHANNELS 3 Zrotation Xrotation Yrotation
            JOINT RightFoot
            {
                OFFSET -0.000000 -48.322342 0.000000
                CHANNELS 3 Zrotation Xrotation Yrotation
                JOINT RightToeBase
                {
                    OFFSET -0.000000 -6.741791 15.557981
                    CHANNELS 3 Zrotation Xrotation Yrotation
                    End Site
                    {
                        OFFSET -0.000000 0.000000 4.148795
                    }
                }
            }
        }
    }
}
MOTION
Frames:    10
Frame Time:    0.008333
-17.834953    97.899857    91.111053    -2.309490    1.261617    89.995979    -1.773192    -10.223555    1.052346    0.922674    -3.039424    1.235491    -1.481780    33.328133    -1.993856    7.147296    -10.341330    -0.678398    10.505374    0.382737    -12.900858    -19.381872    -6.687574    -3.438115    -3.458237    -2.448587    24.033655    -2.788523    -1.616003    -3.971741    -14.887903    3.238036    -8.428802    27.582472    -1.979427    18.229429    3.562421    2.179213    -17.436512    2.758073    2.615176    -4.571002    -0.094839    2.706559    2.758043    -2.682868    0.894995    6.055621    3.795768    -5.113614    9.488843    0.000000    0.000000    0.000000    -3.754679    2.687495    2.251518    2.052973    5.815744    1.567257    1.682544    -10.559437    -13.671646    0.000000    0.000000    0.000000    
-17.830992    97.901657    91.114998    -2.307355    1.262727    89.981331    -1.757921    -10.228853    1.052705    0.898247    -3.046819    1.233986    -1.495820    33.438442    -1.931731    7.180860    -10.360680    -0.608955    10.509543    0.361158    -12.892245    -19.377739    -6.666123    -3.432685    -3.462129    -2.461071    24.061287    -2.787448    -1.626708    -3.978633    -14.874646    3.226414    -8.386620    27.570446    -1.973314    18.220911    3.569226    2.178417    -17.473282    2.796153    2.615670    -4.546457    -0.100059    2.712026    2.773855    -2.671288    0.892338    6.077886    3.809139    -5.105184    9.462340    0.000000    0.000000    0.000000    -3.753544    2.690478    2.247360    2.051992    5.814764    1.560503    1.688302    -10.558080    -13.660689    0.000000    0.000000    0.000000    
-17.827000    97.902298    91.121376    -2.296855    1.260576    89.970848    -1.751468    -10.223546    1.054694    0.890370    -3.062974    1.235189    -1.498133    33.622490    -1.889395    7.201351    -10.480344    -0.556234    10.511637    0.379736    -12.907966    -19.369324    -6.659716    -3.426836    -3.464853    -2.479209    24.084139    -2.783342    -1.644103    -3.962116    -14.876897    3.229062    -8.346480    27.572468    -1.967831    18.209002    3.579634    2.176815    -17.498116    2.791472    2.616598    -4.549181    -0.096807    2.719838    2.776777    -2.669349    0.904372    6.081769    3.794296    -5.111468    9.480700    0.000000    0.000000    0.000000    -3.750944    2.700570    2.246574    2.052947    5.814712    1.574551    1.679448    -10.557784    -13.649350    0.000000    0.000000    0.000000    
-17.820484    97.905052    91.127220    -2.289857    1.264217    89.953300    -1.733832    -10.222151    1.059518    0.858589    -3.084127    1.237710    -1.522422    33.779774    -1.823607    7.248330    -10.529669    -0.480613    10.515452    0.379235    -12.909622    -19.359821    -6.632760    -3.420654    -3.467760    -2.479722    24.103283    -2.816504    -1.642480    -3.952956    -14.853951    3.241646    -8.328751    27.559118    -1.930992    18.223482    3.569809    2.195992    -17.515619    2.891607    2.630757    -4.552589    -0.102544    2.734307    2.788352    -2.658748    0.902894    6.089136    3.765176    -5.105996    9.471538    0.000000    0.000000    0.000000    -3.752090    2.712495    2.246755    2.052383    5.804169    1.540205    1.697024    -10.541155    -13.598805    0.000000    0.000000    0.000000    
-17.817623    97.905380    91.133781    -2.285448    1.264141    89.941734    -1.717868    -10.217043    1.063645    0.827909    -3.111999    1.239731    -1.547693    33.898239    -1.765635    7.295707    -10.484725    -0.418336    10.531624    0.373367    -12.927275    -19.356016    -6.627769    -3.408800    -3.473482    -2.485034    24.129251    -2.819011    -1.645759    -3.947895    -14.837260    3.230535    -8.306569    27.529915    -1.686481    18.206388    3.510762    2.090478    -17.496687    2.938457    2.514258    -4.531476    -0.099994    2.738436    2.792335    -2.655863    0.904560    6.125480    3.767796    -5.101871    9.440690    0.000000    0.000000    0.000000    -3.752377    2.716820    2.267713    2.057767    5.806042    1.552686    1.701374    -10.546993    -13.620200    0.000000    0.000000    0.000000    
-17.810352    97.908195    91.140488    -2.276214    1.266514    89.929840    -1.719035    -10.222850    1.065863    0.832589    -3.121471    1.242307    -1.813096    34.046810    -1.610006    7.657695    -10.454867    -0.223810    10.517980    0.378889    -12.939138    -19.341938    -6.626482    -3.407690    -3.479886    -2.472761    24.161629    -2.831975    -1.630579    -3.949909    -14.849961    3.242885    -8.282856    27.537840    -1.722626    18.206215    3.523591    2.172904    -17.508017    3.307716    2.586699    -4.451169    -0.097473    2.760296    2.788668    -2.660118    0.887988    6.119216    3.738327    -5.086756    9.469352    0.000000    0.000000    0.000000    -3.752116    2.729974    2.242799    2.053964    5.802882    1.583619    1.697181    -10.540251    -13.607532    0.000000    0.000000    0.000000    
-17.804033    97.910782    91.148117    -2.262688    1.260298    89.919708    -1.699692    -10.208872    1.067163    0.812823    -3.167213    1.241487    -1.757212    34.141800    -1.543770    7.547693    -10.328397    -0.180280    10.507424    0.403016    -12.969028    -19.316662    -6.634207    -3.384759    -3.478625    -2.474900    24.185530    -2.858970    -1.631745    -3.931731    -14.826516    3.258140    -8.256841    27.516066    -1.709280    18.211906    3.525127    2.110835    -17.500753    3.113790    2.528643    -4.581094    -0.086520    2.783247    2.800856    -2.663404    0.879195    6.113520    3.723268    -5.086148    9.474858    0.000000    0.000000    0.000000    -3.740220    2.755857    2.263865    2.051262    5.777807    1.533628    1.739277    -10.522191    -13.571492    0.000000    0.000000    0.000000    
-17.796629    97.913574    91.153442    -2.257397    1.266202    89.902679    -1.696123    -10.214952    1.076711    0.802932    -3.186095    1.250657    -1.485332    34.155754    -1.607931    7.105264    -10.116476    -0.313530    10.505971    0.399940    -12.977230    -19.306717    -6.664607    -3.396363    -3.486169    -2.464945    24.212585    -2.796525    -1.621769    -3.920744    -14.772556    3.327804    -8.256563    27.475544    -2.002003    18.259464    3.618957    2.185276    -17.515429    3.039696    2.620928    -4.580980    -0.087439    2.797005    2.801337    -2.667555    0.877246    6.131626    3.729422    -5.075261    9.469075    0.000000    0.000000    0.000000    -3.747408    2.764582    2.263281    2.054015    5.779641    1.590974    1.732687    -10.526254    -13.610208    0.000000    0.000000    0.000000    
-17.790075    97.915489    91.159241    -2.248854    1.275283    89.887047    -1.697478    -10.218034    1.080804    0.789939    -3.202909    1.254695    -1.539890    34.436207    -1.576967    7.183947    -10.297929    -0.266639    10.523285    0.412697    -12.984552    -19.313974    -6.686371    -3.400045    -3.475136    -2.478376    24.230558    -2.809979    -1.637156    -3.895320    -14.755256    3.327951    -8.230046    27.453512    -2.000344    18.245581    3.649385    2.205333    -17.497204    3.023218    2.645576    -4.588161    -0.098385    2.818572    2.796287    -2.659320    0.859983    6.145941    3.690217    -5.062492    9.476348    0.000000    0.000000    0.000000    -3.754792    2.780624    2.276439    2.054150    5.764409    1.576673    1.732434    -10.516533    -13.585546    0.000000    0.000000    0.000000    
-17.781631    97.917328    91.163200    -2.236067    1.279021    89.868553    -1.695242    -10.218051    1.089903    0.791443    -3.222164    1.263743    -1.535260    34.579987    -1.539806    7.126420    -10.257839    -0.245202    10.510502    0.394000    -13.012503    -19.299105    -6.704916    -3.374108    -3.482073    -2.447093    24.258354    -2.901640    -1.599920    -3.913300    -14.750281    3.346547    -8.208857    27.434372    -1.971776    18.237326    3.642594    2.203463    -17.479816    3.068336    2.640120    -4.595109    -0.102443    2.846523    2.798883    -2.656330    0.849807    6.151279    3.652068    -5.062659    9.483353    0.000000    0.000000    0.000000    -3.757001    2.795230    2.288706    2.052507    5.763288    1.594069    1.761391    -10.515565    -13.594260    0.000000    0.000000    0.000000    
